<?xml version="1.0" encoding="UTF-8"?>
<!-- Generator: visioncortex VTracer 0.6.12 -->
<svg version="1.1" xmlns="http://www.w3.org/2000/svg" width="1480" height="2250">
<path d="M0 0 C0.6767562782764571 -0.0015599906444521139 1.3535125565529142 -0.0031199812889042278 2.0507766008377075 -0.0047272443771362305 C4.329293235563739 -0.008731015598357317 6.607743798930471 -0.005549972758387867 8.886260986328125 -0.002410888671875 C10.515513500779093 -0.0037652304115312063 12.14476570920101 -0.005545349206244055 13.774017333984375 -0.007720947265625 C18.207917967087837 -0.012292080536440153 22.641795413220336 -0.010506835198157205 27.07569646835327 -0.007341861724853516 C31.710316037436087 -0.0048157591751589734 36.344933578299674 -0.00715658069681524 40.97955322265625 -0.00872802734375 C48.765842259504836 -0.010549351209547808 56.55212182399407 -0.008144763125699228 64.33840942382813 -0.003387451171875 C73.34404157167006 0.0020512807698622737 82.34965106881077 0.0002951891466835832 91.35528266429901 -0.0052138566970825195 C99.08016430039288 -0.009750591072290149 106.80503911307824 -0.010392665352313202 114.52992165088654 -0.0077751874923706055 C119.14664908366137 -0.006215016890351421 123.76336586938442 -0.006011487875994703 128.3800926208496 -0.009311676025390625 C132.7220465150134 -0.012198370785043267 137.06397120005943 -0.010199938583468793 141.40592193603516 -0.00441741943359375 C143.00067470779493 -0.0030939564456531343 144.59542993306752 -0.0034769445270370625 146.19018173217773 -0.005680084228515625 C148.36510237510862 -0.008407883693834606 150.53992910757364 -0.004990388246298494 152.71484375 0 C153.32377188682557 0.00018851280212572874 153.32377188682557 0.00018851280212572874 156.40531730651855 0.0011425018310546875 C158.98663068246782 0.10663977816382442 161.02701252343218 0.41771014609426516 163.48440551757813 1.126983642578125 C165.44756280143451 1.268234814705096 167.41438663053657 1.3614754831578466 169.38162231445313 1.424102783203125 C170.57615524291987 1.464068756103515 171.77068817138672 1.5040347290039051 173.0014190673828 1.5452117919921875 C173.65023292541503 1.5645049285888604 173.65023292541503 1.5645049285888604 176.93362426757813 1.662139892578125 C178.30617496197783 1.705317834853588 179.67871818201206 1.74873395269384 181.05125427246094 1.7923736572265625 C183.9488938016724 1.8834536861353257 186.84660980503622 1.9712831624914742 189.74441528320313 2.056915283203125 C192.64430587525817 2.142838557281209 195.54401334484055 2.232830388147036 198.44363403320313 2.327423095703125 C218.63817173895177 2.9860762923087094 238.81010934792926 3.2697605867925432 259.0160713195801 3.1423912048339844 C261.6661448268146 3.1258492095975043 264.31622485819753 3.1109391298984406 266.96630859375 3.09613037109375 C278.2456561998597 3.0312561181292494 289.5247003473768 2.9458597257712 300.8037328720093 2.8394365310668945 C306.17236163592486 2.788851920060239 311.54095896197134 2.742343030339555 316.9096984863281 2.705108642578125 C322.1997796765221 2.6683666318722885 327.48969601344857 2.622132276638723 332.77963638305664 2.568920135498047 C334.7755464605618 2.550433747380339 336.77149063934803 2.535304703352793 338.76745223999023 2.523639678955078 C341.5246796914523 2.5068609611761588 344.28151853803047 2.4778777393925964 347.0386047363281 2.445831298828125 C347.8549438476563 2.4436711120605423 348.6712829589844 2.441510925292974 349.5123596191406 2.4392852783203125 C353.35336472870085 2.3819116522548 355.21354881201364 2.3075547796211424 358.4844055175781 0.126983642578125 C361.0003363688386 -0.0715783931851206 363.40181809133753 -0.15258318370638335 365.9179992675781 -0.138641357421875 C366.29978332519534 -0.13996063232421818 366.29978332519534 -0.13996063232421818 368.2318420410156 -0.146636962890625 C370.79535069448775 -0.1505332609885386 373.35843904313924 -0.13757600394619374 375.9219055175781 -0.123016357421875 C376.3686109924316 -0.12213012695312386 376.3686109924316 -0.12213012695312386 378.62921142578125 -0.117645263671875 C396.22950424531973 -0.07736246009278602 413.8006086938768 0.5591540244624582 431.3786926269531 1.415069580078125 C444.8054501949449 2.0411853240792084 458.2057006173251 2.188214882226731 471.64355659484863 2.1511993408203125 C490.738303024315 2.0990809277648736 509.8306855523358 2.202508251532194 528.9249169826508 2.3286895751953125 C531.5072536853788 2.3457297537258768 534.0895917439578 2.3625482062272596 536.6719303131104 2.379302978515625 C546.3666424776989 2.442294470655426 556.0613434043707 2.5068729118131188 565.7560389637947 2.572366714477539 C580.1124555599459 2.669313045965751 594.4688890653681 2.7637192419564656 608.8253237009048 2.8579506874084473 C613.8380762286765 2.890902902239631 618.8508249578634 2.924370688335287 623.8635709285736 2.9583053588867188 C626.9725153370165 2.9792942527558637 630.08146178343 2.999969533349173 633.190408706665 3.0205821990966797 C634.6173556690122 3.030115190200462 636.0443017301618 3.0397843274798504 637.4712467193604 3.0496082305908203 C640.6464987713847 3.071444836618298 643.8217320886774 3.091299456613683 646.9970207214355 3.1071014404296875 C649.3364890671005 3.120439166343914 651.6759273353035 3.140737165008062 654.0152778625488 3.1677398681640625 C655.1004406356811 3.1768086242675793 656.1856034088134 3.185877380371096 657.3036499023438 3.195220947265625 C658.2578714942932 3.2059941864013695 659.2120930862427 3.216767425537114 660.1952304840088 3.2278671264648438 C662.4844055175781 3.126983642578125 662.4844055175781 3.126983642578125 664.4844055175781 2.126983642578125 C666.5354044918953 2.036220528387531 668.5894572798655 2.012229767070991 670.6424560546875 2.0177764892578125 C671.9572998046875 2.0190353393554688 673.2721435546875 2.020294189453125 674.6268310546875 2.0215911865234375 C676.0928655586295 2.028195318789571 677.5588994843448 2.034928828526674 679.0249328613281 2.041778564453125 C680.5623872601576 2.045373334711229 682.0998426122827 2.0485785417625095 683.6372985839844 2.051422119140625 C687.8238321746358 2.060814079432319 692.0103094359968 2.0771562854802994 696.1968111991882 2.095792531967163 C698.8150899291509 2.1074290460806964 701.4333710525248 2.1180970689240013 704.0516548156738 2.1285343170166016 C712.2508237497138 2.1618033059571644 720.4499528897525 2.199870467862027 728.649071097374 2.2438995242118835 C738.0986400749339 2.2944995765756033 747.5480833610247 2.3288211610934013 756.9977649450302 2.349080264568329 C764.3084258032354 2.365811005032441 771.6189252866791 2.3977537296815257 778.9294773340225 2.4409263730049133 C783.2916323032973 2.466326552874122 787.6535867405421 2.4853430140982624 792.0158195495605 2.488302230834961 C796.1281976237758 2.491476896778778 800.2400561617746 2.5136720034020925 804.3522720336914 2.5498580932617188 C805.853331552675 2.5598914404693858 807.3544535270512 2.563335310220424 808.855541229248 2.559328079223633 C819.7429792821972 2.5358545749934365 831.3865596077353 3.168077252635328 839.6719055175781 11.126983642578125 C840.3873352050782 11.786983642578122 841.1027648925781 12.446983642578118 841.8398742675781 13.126983642578125 C843.534157288793 15.18748935958996 844.0941756385944 16.51768534728356 844.4844055175781 19.126983642578125 C845.1444055175782 19.126983642578125 845.8044055175781 19.126983642578125 846.4844055175781 19.126983642578125 C846.4844055175781 19.78698364257812 846.4844055175781 20.446983642578118 846.4844055175781 21.126983642578125 C847.1444055175782 21.126983642578125 847.8044055175781 21.126983642578125 848.4844055175781 21.126983642578125 C851.9537848060493 27.143988312620394 854.0358811018575 32.10238202492167 854.2461242675781 39.095733642578125 C854.4844055175781 41.1269836425781 854.4844055175781 41.1269836425781 856.4844055175781 43.126983642578125 C859.0242204530541 51.25439143610157 857.3671586540438 60.83540953934704 856.4844055175781 69.12698364257813 C857.1444055175782 69.12698364257813 857.8044055175781 69.12698364257813 858.4844055175781 69.12698364257813 C858.4844055175781 73.0869836425781 858.4844055175781 77.04698364257814 858.4844055175781 81.12698364257813 C859.1444055175782 81.12698364257813 859.8044055175781 81.12698364257813 860.4844055175781 81.12698364257813 C860.4844055175781 84.42698364257814 860.4844055175781 87.72698364257812 860.4844055175781 91.12698364257813 C861.1444055175782 91.12698364257813 861.8044055175781 91.12698364257813 862.4844055175781 91.12698364257813 C862.4844055175781 94.42698364257814 862.4844055175781 97.72698364257812 862.4844055175781 101.12698364257813 C863.8044055175781 101.12698364257813 865.1244055175782 101.12698364257813 866.4844055175781 101.12698364257813 C866.4844055175781 102.44698364257812 866.4844055175781 103.76698364257811 866.4844055175781 105.12698364257813 C865.824405517578 105.12698364257813 865.1644055175782 105.12698364257813 864.4844055175781 105.12698364257813 C864.4844055175781 109.74698364257813 864.4844055175781 114.36698364257813 864.4844055175781 119.12698364257813 C865.1444055175782 119.12698364257813 865.8044055175781 119.12698364257813 866.4844055175781 119.12698364257813 C866.4844055175781 123.74698364257813 866.4844055175781 128.36698364257813 866.4844055175781 133.12698364257813 C867.1444055175782 133.12698364257813 867.8044055175781 133.12698364257813 868.4844055175781 133.12698364257813 C868.4844055175781 134.44698364257812 868.4844055175781 135.7669836425781 868.4844055175781 137.12698364257813 C869.1444055175782 137.12698364257813 869.8044055175781 137.12698364257813 870.4844055175781 137.12698364257813 C870.4844055175781 138.44698364257812 870.4844055175781 139.7669836425781 870.4844055175781 141.12698364257813 C871.1444055175782 141.12698364257813 871.8044055175781 141.12698364257813 872.4844055175781 141.12698364257813 C872.4844055175781 141.7869836425781 872.4844055175781 142.44698364257812 872.4844055175781 143.12698364257813 C873.1444055175782 143.12698364257813 873.8044055175781 143.12698364257813 874.4844055175781 143.12698364257813 C874.4844055175781 143.7869836425781 874.4844055175781 144.44698364257812 874.4844055175781 145.12698364257813 C875.8044055175781 145.12698364257813 877.1244055175782 145.12698364257813 878.4844055175781 145.12698364257813 C878.4844055175781 145.7869836425781 878.4844055175781 146.44698364257812 878.4844055175781 147.12698364257813 C884.4244055175782 147.12698364257813 890.3644055175782 147.12698364257813 896.4844055175781 147.12698364257813 C896.4844055175781 146.46698364257816 896.4844055175781 145.80698364257813 896.4844055175781 145.12698364257813 C897.8044055175781 145.12698364257813 899.1244055175782 145.12698364257813 900.4844055175781 145.12698364257813 C900.4844055175781 144.46698364257816 900.4844055175781 143.80698364257813 900.4844055175781 143.12698364257813 C901.1444055175782 143.12698364257813 901.8044055175781 143.12698364257813 902.4844055175781 143.12698364257813 C902.4844055175781 142.46698364257816 902.4844055175781 141.80698364257813 902.4844055175781 141.12698364257813 C903.1444055175782 141.12698364257813 903.8044055175781 141.12698364257813 904.4844055175781 141.12698364257813 C904.4844055175781 139.80698364257813 904.4844055175781 138.48698364257814 904.4844055175781 137.12698364257813 C905.1444055175782 137.12698364257813 905.8044055175781 137.12698364257813 906.4844055175781 137.12698364257813 C906.4844055175781 135.80698364257813 906.4844055175781 134.48698364257814 906.4844055175781 133.12698364257813 C907.1444055175782 133.12698364257813 907.8044055175781 133.12698364257813 908.4844055175781 133.12698364257813 C908.4844055175781 131.14698364257814 908.4844055175781 129.16698364257812 908.4844055175781 127.12698364257813 C909.1444055175782 127.12698364257813 909.8044055175781 127.12698364257813 910.4844055175781 127.12698364257813 C910.4844055175781 125.1469836425781 910.4844055175781 123.16698364257815 910.4844055175781 121.12698364257813 C911.1444055175782 121.12698364257813 911.8044055175781 121.12698364257813 912.4844055175781 121.12698364257813 C912.4844055175781 118.48698364257814 912.4844055175781 115.84698364257812 912.4844055175781 113.12698364257813 C913.8044055175781 113.12698364257813 915.1244055175782 113.12698364257813 916.4844055175781 113.12698364257813 C916.4844055175781 112.46698364257813 916.4844055175781 111.80698364257813 916.4844055175781 111.12698364257813 C917.1444055175782 111.12698364257813 917.8044055175781 111.12698364257813 918.4844055175781 111.12698364257813 C918.4844055175781 110.46698364257813 918.4844055175781 109.80698364257813 918.4844055175781 109.12698364257813 C919.1444055175782 109.12698364257813 919.8044055175781 109.12698364257813 920.4844055175781 109.12698364257813 C920.4844055175781 107.80698364257813 920.4844055175781 106.48698364257814 920.4844055175781 105.12698364257813 C921.8044055175781 105.12698364257813 923.1244055175782 105.12698364257813 924.4844055175781 105.12698364257813 C924.4844055175781 104.46698364257813 924.4844055175781 103.80698364257813 924.4844055175781 103.12698364257813 C925.1444055175782 103.12698364257813 925.8044055175781 103.12698364257813 926.4844055175781 103.12698364257813 C926.4844055175781 102.46698364257813 926.4844055175781 101.80698364257813 926.4844055175781 101.12698364257813 C927.1444055175782 101.12698364257813 927.8044055175781 101.12698364257813 928.4844055175781 101.12698364257813 C928.4844055175781 100.46698364257813 928.4844055175781 99.80698364257813 928.4844055175781 99.12698364257813 C929.8044055175781 99.12698364257813 931.1244055175782 99.12698364257813 932.4844055175781 99.12698364257813 C932.4844055175781 98.46698364257813 932.4844055175781 97.80698364257813 932.4844055175781 97.12698364257813 C933.1444055175782 97.12698364257813 933.8044055175781 97.12698364257813 934.4844055175781 97.12698364257813 C934.4844055175781 95.47698364257812 934.4844055175781 93.82698364257811 934.4844055175781 92.12698364257813 C945.9866425565044 92.1036239529017 957.4888737820183 92.08594983988297 968.9911298751831 92.07517147064209 C974.3343560427161 92.06999362680136 979.677565763762 92.0629908458485 985.0207824707031 92.05154418945313 C990.1949968444137 92.0405312856924 995.3691955852007 92.03466862679056 1000.543420791626 92.03210639953613 C1002.4993648069892 92.0302847953885 1004.4553081477593 92.02672950985965 1006.4112453460693 92.02125358581543 C1019.7998276734918 91.98532434630576 1033.1166973694717 92.37386355219525 1046.4844055175781 93.12698364257813 C1046.4844055175781 96.75698364257812 1046.4844055175781 100.38698364257812 1046.4844055175781 104.12698364257813 C1045.2382597351075 104.11001434326172 1043.9921139526368 104.09304504394532 1042.7082061767578 104.0755615234375 C1030.9804901444309 103.91718278864857 1019.2526822336199 103.76944760747716 1007.5246992111206 103.6322078704834 C1001.4948262884209 103.56130271000507 995.4650492325331 103.48661139688284 989.4353332519531 103.40335083007813 C983.6193842321857 103.32317995071196 977.8033927405988 103.25284542592058 971.9872379302979 103.18941116333008 C969.7651764793941 103.16343162388102 967.5431539883716 103.13387144576399 965.3211879730225 103.1007194519043 C962.2157077748027 103.05498917444146 959.1103344916589 103.02184292814616 956.0046691894531 102.99172973632813 C955.0803811645508 102.97518844604491 954.1560931396484 102.95864715576172 953.2037963867188 102.94160461425781 C952.3582569885255 102.93593978881836 951.5127175903319 102.9302749633789 950.6415557861328 102.9244384765625 C950.2742212820053 102.91982951164246 950.2742212820053 102.91982951164246 948.415286064148 102.89650535583496 C946.4844055175781 103.12698364257813 946.4844055175781 103.12698364257813 943.4844055175781 105.12698364257813 C942.3294055175782 105.43635864257811 941.1744055175782 105.74573364257813 939.9844055175781 106.06448364257813 C936.6538037649184 107.07555917463552 935.6533462065916 107.61557863424679 933.4844055175781 110.12698364257813 C932.824405517578 110.12698364257813 932.1644055175782 110.12698364257813 931.4844055175781 110.12698364257813 C931.4844055175781 110.78698364257812 931.4844055175781 111.44698364257812 931.4844055175781 112.12698364257813 C930.824405517578 112.12698364257813 930.1644055175782 112.12698364257813 929.4844055175781 112.12698364257813 C929.3503430175781 112.50854614257813 929.3503430175781 112.50854614257813 928.6719055175781 114.43948364257813 C927.494126675313 117.1049831277046 926.4917289479883 118.11966021216799 924.4844055175781 120.12698364257813 C920.9357813371894 125.53557635889462 919.780691149607 130.72721399075436 919.4844055175781 137.12698364257813 C918.824405517578 137.12698364257813 918.1644055175782 137.12698364257813 917.4844055175781 137.12698364257813 C917.3606555175782 138.03448364257815 917.2369055175782 138.94198364257812 917.1094055175781 139.87698364257813 C916.563308743385 142.71668686838262 915.9117674914683 144.652889554502 914.4844055175781 147.12698364257813 C913.824405517578 147.12698364257813 913.1644055175782 147.12698364257813 912.4844055175781 147.12698364257813 C912.4431555175781 147.41573364257812 912.4431555175781 147.41573364257812 912.2344055175781 148.87698364257813 C911.2584235139791 151.80492965337538 909.849293286388 153.17942900944047 907.4844055175781 155.12698364257813 C906.4944055175781 155.12698364257813 905.5044055175781 155.12698364257813 904.4844055175781 155.12698364257813 C904.4844055175781 155.7869836425781 904.4844055175781 156.44698364257812 904.4844055175781 157.12698364257813 C903.824405517578 157.12698364257813 903.1644055175782 157.12698364257813 902.4844055175781 157.12698364257813 C902.4844055175781 157.7869836425781 902.4844055175781 158.44698364257812 902.4844055175781 159.12698364257813 C899.1844055175782 159.12698364257813 895.8844055175782 159.12698364257813 892.4844055175781 159.12698364257813 C892.4844055175781 159.7869836425781 892.4844055175781 160.44698364257812 892.4844055175781 161.12698364257813 C890.1301587646951 161.15425290998604 887.7762359024334 161.17395083136796 885.4219055175781 161.18948364257813 C884.7664172363282 161.19528442382813 884.7664172363282 161.19528442382813 881.4492492675781 161.22463989257813 C877.6680536185675 161.13150699481923 874.2051984454499 160.7414709011473 870.4844055175781 160.12698364257813 C870.4844055175781 158.47698364257815 870.4844055175781 156.8269836425781 870.4844055175781 155.12698364257813 C869.824405517578 155.12698364257813 869.1644055175782 155.12698364257813 868.4844055175781 155.12698364257813 C868.4844055175781 154.46698364257816 868.4844055175781 153.80698364257813 868.4844055175781 153.12698364257813 C867.824405517578 153.12698364257813 867.1644055175782 153.12698364257813 866.4844055175781 153.12698364257813 C866.4844055175781 152.46698364257816 866.4844055175781 151.80698364257813 866.4844055175781 151.12698364257813 C865.824405517578 151.12698364257813 865.1644055175782 151.12698364257813 864.4844055175781 151.12698364257813 C864.4844055175781 150.46698364257816 864.4844055175781 149.80698364257813 864.4844055175781 149.12698364257813 C863.824405517578 149.12698364257813 863.1644055175782 149.12698364257813 862.4844055175781 149.12698364257813 C862.4844055175781 148.46698364257816 862.4844055175781 147.80698364257813 862.4844055175781 147.12698364257813 C861.824405517578 147.12698364257813 861.1644055175782 147.12698364257813 860.4844055175781 147.12698364257813 C860.4844055175781 146.46698364257816 860.4844055175781 145.80698364257813 860.4844055175781 145.12698364257813 C859.824405517578 145.12698364257813 859.1644055175782 145.12698364257813 858.4844055175781 145.12698364257813 C858.4844055175781 143.80698364257813 858.4844055175781 142.48698364257814 858.4844055175781 141.12698364257813 C857.824405517578 141.12698364257813 857.1644055175782 141.12698364257813 856.4844055175781 141.12698364257813 C856.4844055175781 137.8269836425781 856.4844055175781 134.5269836425781 856.4844055175781 131.12698364257813 C855.824405517578 131.12698364257813 855.1644055175782 131.12698364257813 854.4844055175781 131.12698364257813 C854.4844055175781 127.16698364257815 854.4844055175781 123.20698364257811 854.4844055175781 119.12698364257813 C853.824405517578 119.12698364257813 853.1644055175782 119.12698364257813 852.4844055175781 119.12698364257813 C852.4844055175781 115.16698364257815 852.4844055175781 111.20698364257811 852.4844055175781 107.12698364257813 C851.824405517578 107.12698364257813 851.1644055175782 107.12698364257813 850.4844055175781 107.12698364257813 C850.4844055175781 105.1469836425781 850.4844055175781 103.16698364257815 850.4844055175781 101.12698364257813 C849.824405517578 101.12698364257813 849.1644055175782 101.12698364257813 848.4844055175781 101.12698364257813 C848.4844055175781 99.80698364257813 848.4844055175781 98.48698364257814 848.4844055175781 97.12698364257813 C849.1444055175782 97.12698364257813 849.8044055175781 97.12698364257813 850.4844055175781 97.12698364257813 C850.4844055175781 95.80698364257813 850.4844055175781 94.48698364257814 850.4844055175781 93.12698364257813 C849.824405517578 93.12698364257813 849.1644055175782 93.12698364257813 848.4844055175781 93.12698364257813 C848.4844055175781 88.50698364257812 848.4844055175781 83.88698364257812 848.4844055175781 79.12698364257813 C847.824405517578 79.12698364257813 847.1644055175782 79.12698364257813 846.4844055175781 79.12698364257813 C846.4593493652344 78.85023803710936 846.4593493652344 78.85023803710936 846.3325500488281 77.44973754882813 C845.9259842317376 73.01992178665171 845.503525797172 68.59178952468477 845.0547180175781 64.16604614257813 C844.9698010253906 63.32251586914063 844.8848840332032 62.478985595703136 844.7973937988281 61.609893798828125 C844.3721061807103 58.23612228848643 843.6578558495537 54.94529297532637 842.9531555175781 51.620635986328125 C842.4889398864414 49.15110554027021 842.2052111312262 46.73084547403073 841.9844055175781 44.228546142578125 C841.9006164550781 43.331358642578124 841.816827392578 42.43417114257812 841.7304992675781 41.509796142578125 C841.5690535799815 39.70057938951217 841.4151478909653 37.89067061343002 841.2695617675781 36.080108642578125 C841.232823486328 35.661163330078125 841.232823486328 35.661163330078125 841.0469055175781 33.541046142578125 C840.9863195800781 32.787750244140625 840.925733642578 32.034454345703125 840.8633117675781 31.258331298828125 C840.4366929087507 28.85860021792351 839.806019365878 27.17604511331072 838.4844055175781 25.126983642578125 C837.4944055175781 24.79698364257814 836.5044055175781 24.46698364257813 835.4844055175781 24.126983642578125 C835.4844055175781 23.46698364257813 835.4844055175781 22.806983642578132 835.4844055175781 22.126983642578125 C834.9275305175781 22.02385864257812 834.3706555175781 21.920733642578114 833.7969055175781 21.814483642578125 C831.4844055175781 21.126983642578097 831.4844055175781 21.126983642578097 829.1094055175781 19.626983642578125 C826.1939520457884 17.96101023012679 823.7967127046647 17.512135641076554 820.4844055175781 17.126983642578125 C820.4844055175781 16.136983642578116 820.4844055175781 15.146983642578135 820.4844055175781 14.126983642578125 C820.1370031738281 14.16887817382812 820.1370031738281 14.16887817382812 818.3789367675781 14.380889892578125 C807.6953548553245 15.45060214995209 797.1775689142028 14.795780275383606 786.4844055175781 14.126983642578125 C786.4844055175781 13.466983642578128 786.4844055175781 12.806983642578132 786.4844055175781 12.126983642578125 C784.5044055175781 12.126983642578125 782.5244055175781 12.126983642578125 780.4844055175781 12.126983642578125 C780.4844055175781 12.786983642578122 780.4844055175781 13.446983642578118 780.4844055175781 14.126983642578125 C760.9863032763105 14.866397302963065 741.5297421144737 15.577599203062903 722.0195617675781 14.865264892578125 C692.4126585376114 13.823061696856058 662.8502584203076 14.394488255205403 633.2383193969727 14.910810470581055 C622.6527719019517 15.094732217916174 612.0714846879202 15.203516745014326 601.4844055175781 15.126983642578125 C601.4844055175781 14.136983642578116 601.4844055175781 13.146983642578135 601.4844055175781 12.126983642578125 C599.1744055175782 12.126983642578125 596.8644055175781 12.126983642578125 594.4844055175781 12.126983642578125 C594.1544055175781 13.116983642578134 593.8244055175782 14.106983642578115 593.4844055175781 15.126983642578125 C590.5468443279428 15.15393374523532 587.6095299718864 15.173798386147809 584.6719055175781 15.189483642578125 C584.2552160644532 15.193673095703133 584.2552160644532 15.193673095703133 582.1465148925781 15.214874267578125 C581.3440734863282 15.218096923828114 580.5416320800781 15.22131958007813 579.7148742675781 15.224639892578125 C579.3456787109375 15.227258300781244 579.3456787109375 15.227258300781244 577.4773254394531 15.240509033203125 C575.4844055175781 15.126983642578125 575.4844055175781 15.126983642578125 572.4844055175781 14.126983642578125 C572.4844055175781 13.466983642578128 572.4844055175781 12.806983642578132 572.4844055175781 12.126983642578125 C571.6571496582031 12.132220458984364 570.8298937988282 12.13745727539063 569.9775695800781 12.142852783203125 C566.2298559498603 12.163638333384768 562.4821544542876 12.176648885945554 558.7344055175781 12.189483642578125 C557.4324523925782 12.197862548828112 556.1304992675781 12.206241455078128 554.7890930175781 12.214874267578125 C554.1638977050782 12.21648559570312 554.1638977050782 12.21648559570312 551.0000305175781 12.224639892578125 C550.4239807128906 12.227258300781244 550.4239807128906 12.227258300781244 547.5088195800781 12.240509033203125 C544.9651358791069 12.145028493894785 542.900422383281 11.87615625436797 540.4844055175781 11.126983642578125 C540.4844055175781 12.446983642578118 540.4844055175781 13.766983642578111 540.4844055175781 15.126983642578125 C533.8844055175781 15.126983642578125 527.2844055175781 15.126983642578125 520.4844055175781 15.126983642578125 C520.4844055175781 14.136983642578116 520.4844055175781 13.146983642578135 520.4844055175781 12.126983642578125 C515.8437029835839 12.101990216054844 511.2030409027943 12.083986871117418 506.5622863769531 12.072052001953125 C504.9883861913713 12.067068761655605 503.4144905215338 12.060279747427813 501.8406066894531 12.051544189453125 C493.7759236688504 12.007951308260687 485.80128371894284 11.9874549180457 477.7754211425781 12.904327392578125 C474.00637678510236 13.270628378726656 470.2680325402106 13.189010315080282 466.4844055175781 13.126983642578125 C466.4844055175781 12.466983642578128 466.4844055175781 11.806983642578132 466.4844055175781 11.126983642578125 C463.9216063210064 11.437169679295977 461.35918441456647 11.750052550780595 458.7969055175781 12.064483642578125 C458.0756750488281 12.15149536132813 457.35444458007817 12.238507080078136 456.6113586425781 12.328155517578125 C455.90559692382817 12.41516723632813 455.1998352050781 12.502178955078136 454.4726867675781 12.591827392578125 C454.1506225585938 12.631103515625 454.1506225585938 12.631103515625 452.5207824707031 12.829864501953125 C450.484405517578 13.126983642578153 450.484405517578 13.126983642578153 448.48333740234375 13.636474609375 C444.14229696456187 14.346500588640765 439.85689622462746 14.274353278688494 435.4651184082031 14.272247314453125 C434.9623865509034 14.273926620483394 434.9623865509034 14.273926620483394 432.4182586669922 14.282424926757813 C429.09784710165275 14.291916155792052 425.77748604984015 14.293877025550643 422.4570617675781 14.294952392578125 C420.14687580586485 14.29816587785109 417.83669004921387 14.301530020391397 415.52650451660156 14.305038452148438 C410.6853996589691 14.31102488433126 405.8443126436233 14.312878812273937 401.0032043457031 14.312286376953125 C394.80138291489857 14.312184699415127 388.5996758265237 14.32584495180788 382.39788150787354 14.343058586120605 C377.6272173527516 14.354178250734662 372.85658086365333 14.356205604776079 368.08590507507324 14.355676651000977 C365.7993778774612 14.356856504636397 363.5128499597075 14.361278578576332 361.2263355255127 14.369009017944336 C358.02850455217936 14.378809499149583 354.8309221593254 14.375930669771037 351.6330871582031 14.369903564453125 C351.1615621948242 14.372713317871103 351.1615621948242 14.372713317871103 348.7753601074219 14.386932373046875 C345.01006068248364 14.368905196183249 342.0065408429747 14.303710563214594 338.4165496826172 13.088607788085938 C334.3085294447611 11.741344069589871 330.68850320328966 12.165600836511913 326.4214172363281 12.498077392578125 C316.7225673312122 13.11453847010884 307.0844358296848 13.246162822426442 297.3685703277588 13.202268600463867 C294.33569930176816 13.188787940183516 291.3028698838434 13.182243233754605 288.2699737548828 13.177047729492188 C283.764426175126 13.168820399130112 279.2588943848567 13.158174668783488 274.75335693359375 13.14556884765625 C262.1389864560697 13.111368426717803 249.52459923271067 13.097486761624992 236.91018676757813 13.091827392578125 C236.2254216456413 13.091477038860319 235.54065652370446 13.091126685142513 234.83514094352722 13.090765714645386 C208.04436569827214 13.078361734996832 181.25506198560925 13.212692485381297 154.46487426757813 13.380889892578125 C152.47668461556856 13.393250435455087 150.488494918323 13.405603704297022 148.50030517578125 13.417949676513672 C129.65173742200164 13.535415349956708 110.80322079026729 13.659160130521656 91.95478814840317 13.796673357486725 C84.40151797946788 13.851588649496847 76.84822889155339 13.903031195317652 69.29491811990738 13.952039182186127 C64.02760381515799 13.986477609437259 58.76035196313251 14.025549609822605 53.493098735809326 14.068281292915344 C50.26288186382169 14.093405778454212 47.03264782109062 14.114162653479013 43.80239272117615 14.133689880371094 C42.31919837636531 14.14353965021644 40.83601462686812 14.15518426681868 39.35285019874573 14.168813705444336 C32.29315750101915 14.232845295490336 25.466511077059238 14.202367051203055 18.484405517578125 13.126983642578125 C15.829999504960995 13.017379790705803 13.200951257669317 12.940511540495322 10.546905517578125 12.923858642578125 C9.822532958984368 12.91815856933593 9.098160400390611 12.912458496093763 8.351837158203125 12.906585693359375 C6.832564564767665 12.897214035566662 5.313272363206124 12.890633280871157 3.793975830078125 12.886749267578125 C1.489902552316039 12.877006885853973 -0.8132906984113788 12.845895539079322 -3.117156982421875 12.814483642578125 C-19.399446471817953 12.696860300408161 -19.399446471817953 12.696860300408161 -26.140594482421875 18.314483642578125 C-26.924344482421873 19.24260864257812 -27.70809448242187 20.170733642578114 -28.515594482421875 21.126983642578125 C-28.768250732421848 21.42153442382812 -28.768250732421848 21.42153442382812 -30.046844482421875 22.912139892578125 C-33.49130589137923 27.15862050215057 -35.48392135428861 31.081738589840626 -36.972625732421875 36.341827392578125 C-37.515594482421875 38.126983642578125 -37.515594482421875 38.126983642578125 -38.515594482421875 39.126983642578125 C-38.57584390058565 42.527310180196196 -38.53560481611839 45.91288893834155 -38.476531982421875 49.312530517578125 C-38.415453067160115 54.92670081205466 -38.415453067160115 54.92670081205466 -39.515594482421875 57.126983642578125 C-39.747859084892355 59.83960480229507 -39.93495683706033 62.534714899485465 -40.078094482421875 65.25198364257813 C-40.09968627929686 65.62903442382813 -40.09968627929686 65.62903442382813 -40.208953857421875 67.53713989257813 C-40.315077678058344 69.40020252152948 -40.415844489634026 71.26356888369043 -40.515594482421875 73.12698364257813 C-41.17559448242184 73.12698364257813 -41.83559448242187 73.12698364257813 -42.515594482421875 73.12698364257813 C-42.515594482421875 77.0869836425781 -42.515594482421875 81.04698364257814 -42.515594482421875 85.12698364257813 C-43.17559448242184 85.12698364257813 -43.83559448242187 85.12698364257813 -44.515594482421875 85.12698364257813 C-44.50399291992187 85.98163208007813 -44.492391357421866 86.83628051757813 -44.480438232421875 87.71682739257813 C-44.471414794921884 88.82155395507812 -44.46239135742189 89.9262805175781 -44.453094482421875 91.06448364257813 C-44.44149291992187 92.16663208007813 -44.429891357421866 93.26878051757814 -44.417938232421875 94.40432739257813 C-44.515594482421875 97.12698364257813 -44.515594482421875 97.12698364257813 -45.515594482421875 98.12698364257813 C-45.67785582881265 100.37460377406552 -45.794105787529645 102.62558076175958 -45.890594482421875 104.87698364257813 C-46.22030826397423 111.150537686115 -47.26642830409884 116.92782702839915 -48.816375732421875 123.02932739257813 C-49.868676624590535 127.69119670816335 -50.23877876731132 132.36384426877933 -50.515594482421875 137.12698364257813 C-51.17559448242184 137.12698364257813 -51.83559448242187 137.12698364257813 -52.515594482421875 137.12698364257813 C-52.515594482421875 138.44698364257812 -52.515594482421875 139.7669836425781 -52.515594482421875 141.12698364257813 C-53.17559448242184 141.12698364257813 -53.83559448242187 141.12698364257813 -54.515594482421875 141.12698364257813 C-54.515594482421875 142.44698364257812 -54.515594482421875 143.7669836425781 -54.515594482421875 145.12698364257813 C-55.17559448242184 145.12698364257813 -55.83559448242187 145.12698364257813 -56.515594482421875 145.12698364257813 C-56.515594482421875 145.7869836425781 -56.515594482421875 146.44698364257812 -56.515594482421875 147.12698364257813 C-57.17559448242184 147.12698364257813 -57.83559448242187 147.12698364257813 -58.515594482421875 147.12698364257813 C-58.515594482421875 147.7869836425781 -58.515594482421875 148.44698364257812 -58.515594482421875 149.12698364257813 C-59.17559448242184 149.12698364257813 -59.83559448242187 149.12698364257813 -60.515594482421875 149.12698364257813 C-60.515594482421875 149.7869836425781 -60.515594482421875 150.44698364257812 -60.515594482421875 151.12698364257813 C-61.17559448242184 151.12698364257813 -61.83559448242187 151.12698364257813 -62.515594482421875 151.12698364257813 C-62.515594482421875 151.7869836425781 -62.515594482421875 152.44698364257812 -62.515594482421875 153.12698364257813 C-63.17559448242184 153.12698364257813 -63.83559448242187 153.12698364257813 -64.51559448242188 153.12698364257813 C-64.51559448242188 155.10698364257814 -64.51559448242188 157.08698364257816 -64.51559448242188 159.12698364257813 C-72.43559448242183 159.12698364257813 -80.3555944824219 159.12698364257813 -88.51559448242188 159.12698364257813 C-88.51559448242188 158.46698364257816 -88.51559448242188 157.80698364257813 -88.51559448242188 157.12698364257813 C-90.49559448242186 157.12698364257813 -92.47559448242188 157.12698364257813 -94.51559448242188 157.12698364257813 C-94.51559448242188 156.46698364257816 -94.51559448242188 155.80698364257813 -94.51559448242188 155.12698364257813 C-95.83559448242187 155.12698364257813 -97.15559448242186 155.12698364257813 -98.51559448242188 155.12698364257813 C-98.51559448242188 154.46698364257816 -98.51559448242188 153.80698364257813 -98.51559448242188 153.12698364257813 C-99.83559448242187 153.12698364257813 -101.15559448242186 153.12698364257813 -102.51559448242188 153.12698364257813 C-102.51559448242188 152.46698364257816 -102.51559448242188 151.80698364257813 -102.51559448242188 151.12698364257813 C-103.17559448242187 151.12698364257813 -103.83559448242187 151.12698364257813 -104.51559448242188 151.12698364257813 C-104.51559448242188 150.46698364257816 -104.51559448242188 149.80698364257813 -104.51559448242188 149.12698364257813 C-105.17559448242187 149.12698364257813 -105.83559448242187 149.12698364257813 -106.51559448242188 149.12698364257813 C-106.51559448242188 147.80698364257813 -106.51559448242188 146.48698364257814 -106.51559448242188 145.12698364257813 C-107.17559448242187 145.12698364257813 -107.83559448242187 145.12698364257813 -108.51559448242188 145.12698364257813 C-108.79274291992186 144.00678833007817 -109.06989135742188 142.8865930175781 -109.35543823242188 141.73245239257813 C-109.72126115737868 140.25978061775203 -110.08715001478637 138.78712521994862 -110.45309448242188 137.31448364257813 C-110.63549682617187 136.5764953613281 -110.81789916992187 135.8385070800781 -111.00582885742188 135.07815551757813 C-111.75785598023765 132.0563738059002 -112.53045020985653 129.08241646027415 -113.51559448242188 126.12698364257813 C-114.01059448242188 125.96198364257813 -114.01059448242188 125.96198364257813 -116.51559448242188 125.12698364257813 C-119.51559448242188 120.79365030924478 -119.51559448242188 120.79365030924478 -119.51559448242188 118.12698364257813 C-120.01059448242188 117.96198364257813 -120.01059448242188 117.96198364257813 -122.51559448242188 117.12698364257813 C-124.16403198242182 115.38479614257818 -124.16403198242182 115.38479614257818 -125.89059448242188 113.25198364257813 C-128.0627910940932 110.65549384985849 -129.48264133448868 109.14591417436952 -132.45309448242188 107.43948364257813 C-132.79340698242189 107.22292114257812 -132.79340698242189 107.22292114257812 -134.51559448242188 106.12698364257813 C-134.82809448242188 103.43948364257815 -134.82809448242188 103.43948364257815 -134.51559448242188 101.12698364257813 C-135.67059448242188 101.29198364257812 -135.67059448242188 101.29198364257812 -141.51559448242188 102.12698364257813 C-141.51559448242188 103.11698364257813 -141.51559448242188 104.10698364257814 -141.51559448242188 105.12698364257813 C-146.90906436257407 105.1516321374252 -152.3025017363926 105.16981895085382 -157.69601440429688 105.18191528320313 C-159.53228323083758 105.18695595739268 -161.36854802325684 105.19378841035953 -163.20480346679688 105.20242309570313 C-165.83835849587064 105.21450036451733 -168.4718606462937 105.22021445288561 -171.10543823242188 105.22463989257813 C-171.5184593963623 105.22722053527832 -171.5184593963623 105.22722053527832 -173.6085968017578 105.24028015136719 C-175.57795815774668 105.24047568875864 -177.54721061770127 105.18902515936082 -179.51559448242188 105.12698364257813 C-179.84559448242186 104.79698364257814 -180.17559448242187 104.46698364257813 -180.51559448242188 104.12698364257813 C-186.251962801224 103.21583789171694 -191.8404295208071 102.97264048088363 -197.64059448242188 103.00198364257813 C-198.41274291992187 102.9981164550781 -199.18489135742186 102.99424926757814 -199.98043823242188 102.99026489257813 C-200.73711791992187 102.99155395507813 -201.49379760742187 102.99284301757814 -202.27340698242188 102.99417114257813 C-202.60928833007813 102.99473510742189 -202.60928833007813 102.99473510742189 -204.30905151367188 102.99758911132813 C-206.51559448242188 103.12698364257813 -206.51559448242188 103.12698364257813 -209.38864135742188 103.62918090820313 C-212.5824184161266 104.13762183752067 -215.55737548162807 104.240638192087 -218.78903198242188 104.22463989257813 C-219.94274291992187 104.22141723632814 -221.09645385742186 104.21819458007812 -222.28512573242188 104.21487426757813 C-223.47493041992186 104.20649536132811 -224.66473510742188 104.19811645507812 -225.89059448242188 104.18948364257813 C-227.10360229492187 104.18497192382813 -228.31661010742187 104.18046020507813 -229.56637573242188 104.17581176757813 C-232.54949954849297 104.16406718562507 -235.5325212769481 104.14764204427809 -238.51559448242188 104.12698364257813 C-239.85771192788005 100.29160453954944 -240.866183240609 97.21718582142773 -240.51559448242188 93.12698364257813 C-239.51559448242188 92.12698364257813 -239.51559448242188 92.12698364257813 -235.6148223876953 92.01345825195313 C-233.82905304421485 92.0136081834114 -232.04327953439417 92.01938868472496 -230.25753784179688 92.02932739257813 C-229.2851315307617 92.0307876586914 -228.31272521972656 92.0322479248047 -227.31085205078125 92.03375244140625 C-225.19042902192103 92.03756947192755 -223.07000922410083 92.04369748759677 -220.94959831237793 92.05181884765625 C-217.59102111544146 92.06453824218625 -214.23248324972718 92.07108749998986 -210.87388610839844 92.07595825195313 C-202.52469874430673 92.08936120362984 -194.1755482854367 92.11347275152272 -185.82638549804688 92.13735961914063 C-178.78627798907888 92.15711648021869 -171.74618468064833 92.17275236774563 -164.70605659484863 92.18292236328125 C-161.40246681330402 92.18939154982965 -158.09893511686647 92.20190469205357 -154.7953643798828 92.21463012695313 C-152.75671437749378 92.21826516410448 -150.7180638431496 92.2216165799195 -148.67941284179688 92.22463989257813 C-148.2223671722412 92.2272230529785 -148.2223671722412 92.2272230529785 -145.90943908691406 92.24029541015625 C-140.684576878185 92.24072400878589 -135.6865549456574 91.88600305764214 -130.51559448242188 91.12698364257813 C-130.51559448242188 91.78698364257812 -130.51559448242188 92.44698364257812 -130.51559448242188 93.12698364257813 C-129.19559448242188 93.12698364257813 -127.87559448242189 93.12698364257813 -126.51559448242188 93.12698364257813 C-126.51559448242188 94.44698364257812 -126.51559448242188 95.76698364257811 -126.51559448242188 97.12698364257813 C-126.14466674804686 97.17447753906251 -126.14466674804686 97.17447753906251 -124.26754760742188 97.41482543945313 C-119.40447731814817 98.67330450561809 -116.47313881064593 102.45030068071225 -113.01559448242188 105.93948364257813 C-112.25109985351563 106.70760375976562 -111.48660522460938 107.47572387695311 -110.69894409179688 108.26712036132813 C-103.87568621084307 115.36508564041907 -100.89118355710346 121.44121546722761 -98.57809448242188 131.00198364257813 C-97.13256218122754 135.25354923432621 -94.7765879271621 137.07866368336443 -91.51559448242188 140.12698364257813 C-91.51559448242188 140.7869836425781 -91.51559448242188 141.44698364257812 -91.51559448242188 142.12698364257813 C-75.75175684404542 142.52550762781794 -75.75175684404542 142.52550762781794 -69.51559448242188 140.12698364257813 C-68.20309448242188 138.18948364257813 -68.20309448242188 138.18948364257813 -67.51559448242188 136.12698364257813 C-67.26809448242187 135.9207336425781 -67.26809448242187 135.9207336425781 -66.01559448242188 134.87698364257813 C-63.580559102662164 132.0361090328585 -63.28786612976188 128.75071983394278 -62.515594482421875 125.12698364257813 C-61.85559448242191 125.12698364257813 -61.19559448242188 125.12698364257813 -60.515594482421875 125.12698364257813 C-60.515594482421875 121.82698364257811 -60.515594482421875 118.52698364257813 -60.515594482421875 115.12698364257813 C-59.85559448242191 115.12698364257813 -59.19559448242188 115.12698364257813 -58.515594482421875 115.12698364257813 C-58.515594482421875 110.50698364257812 -58.515594482421875 105.88698364257812 -58.515594482421875 101.12698364257813 C-57.85559448242191 101.12698364257813 -57.19559448242188 101.12698364257813 -56.515594482421875 101.12698364257813 C-56.515594482421875 99.80698364257813 -56.515594482421875 98.48698364257814 -56.515594482421875 97.12698364257813 C-57.17559448242184 97.12698364257813 -57.83559448242187 97.12698364257813 -58.515594482421875 97.12698364257813 C-58.515594482421875 95.80698364257813 -58.515594482421875 94.48698364257814 -58.515594482421875 93.12698364257813 C-57.85559448242191 93.12698364257813 -57.19559448242188 93.12698364257813 -56.515594482421875 93.12698364257813 C-56.515594482421875 92.46698364257813 -56.515594482421875 91.80698364257813 -56.515594482421875 91.12698364257813 C-55.85559448242191 91.12698364257813 -55.19559448242188 91.12698364257813 -54.515594482421875 91.12698364257813 C-54.515594482421875 86.50698364257812 -54.515594482421875 81.88698364257812 -54.515594482421875 77.12698364257813 C-53.85559448242191 77.12698364257813 -53.19559448242188 77.12698364257813 -52.515594482421875 77.12698364257813 C-52.515594482421875 73.16698364257815 -52.515594482421875 69.20698364257811 -52.515594482421875 65.12698364257813 C-51.85559448242191 65.12698364257813 -51.19559448242188 65.12698364257813 -50.515594482421875 65.12698364257813 C-50.515594482421875 61.16698364257812 -50.515594482421875 57.20698364257811 -50.515594482421875 53.126983642578125 C-49.85559448242191 53.126983642578125 -49.19559448242188 53.126983642578125 -48.515594482421875 53.126983642578125 C-48.55039916992189 51.83405395507813 -48.5852038574219 50.54112426757814 -48.621063232421875 49.209014892578125 C-49.08197995717262 24.916129851529064 -49.08197995717262 24.916129851529064 -43.328094482421875 17.189483642578125 C-42.864031982421864 16.849171142578115 -42.864031982421864 16.849171142578115 -40.515594482421875 15.126983642578125 C-39.91489135742188 14.651319580078138 -39.314188232421884 14.175655517578122 -38.695281982421875 13.685577392578125 C-29.78216709680555 6.712375746772437 -22.137681022430797 2.2231688553969775 -10.687469482421875 1.373077392578125 C-6.901323337469762 0.9440716243551321 -4.0291432105706235 0.0012481204335585971 0 0 Z " fill="#000000" transform="translate(341.5155944824219,121.87301635742188)"/>
</svg>
